<?xml version="1.0" encoding="UTF-8" standalone="no"?> <svg xmlns="http://www.w3.org/2000/svg" xmlns:xlink="http://www.w3.org/1999/xlink" style="isolation:isolate" viewBox="0 0 500 565.876" width="500" height="565.876"><defs><clipPath id="_clipPath_fQt2OVtHowei5eCbFsJSQ8GhEUU556i4"><rect width="500" height="565.876"></rect></clipPath></defs><g clip-path="url(#_clipPath_fQt2OVtHowei5eCbFsJSQ8GhEUU556i4)"><g><clipPath id="_clipPath_JJ9iiFGcjRs1shMI52cikuNU2vJ4yNOq"><path d=" M 0 565.876 L 500 565.876 L 500 0 L 0 0 L 0 565.876 Z " fill="rgb(255,255,255)"></path></clipPath><g clip-path="url(#_clipPath_JJ9iiFGcjRs1shMI52cikuNU2vJ4yNOq)"><path d=" M 245.969 565.875 C 245.969 565.875 0.003 428.06 0.003 153.667 C 109.112 70.301 247.263 76.162 247.263 76.162 C 247.263 76.162 377.503 67.306 499.999 153.667 C 499.999 439.434 245.969 565.875 245.969 565.875 Z " fill="rgb(217,205,184)"></path><path d=" M 389.028 463.696 L 406.906 492.289 L 316.58 485.543 L 367.525 463.696 L 372.368 433.502 L 408.551 444.513 L 389.028 463.696 Z " fill="rgb(123,123,123)"></path><path d=" M 107.903 463.696 L 90.026 492.289 L 180.356 485.543 L 129.407 463.696 L 124.568 433.502 L 88.381 444.513 L 107.903 463.696 Z " fill="rgb(123,123,123)"></path><path d=" M 131.051 172.513 L 178.718 219.278 L 245.552 258.691 L 314.306 220.475 L 372.604 161.215 L 405.267 103.835 L 357.123 58.978 L 317.693 78.238 L 245.936 -0.003 L 185.864 61.936 L 147.009 41.375 L 92.442 102.251 L 131.051 172.513 Z " fill="rgb(217,205,184)"></path><path d=" M 317.54 78.069 L 306.036 65.526 L 305.652 64.912 L 317.673 77.592 L 317.54 78.069 Z " fill="rgb(231,223,209)"></path><path d=" M 313.571 92.315 C 312.286 92.113 311.005 91.915 309.748 91.733 L 313.761 77.865 L 306.037 65.529 L 317.541 78.067 L 313.571 92.315 Z " fill="rgb(217,205,184)"></path><path d=" M 296.752 80.119 L 259.178 58.89 L 249.332 10.338 L 296.752 80.119 Z " fill="rgb(235,231,221)"></path><path d=" M 395.039 113.723 C 380.601 108.307 366.608 103.998 353.374 100.578 L 353.249 100.421 L 357.703 66.715 L 395.039 113.723 Z " fill="rgb(235,231,221)"></path><path d=" M 164.323 95.894 L 146.979 50.418 L 182.39 73.611 L 182.968 92.6 C 177.031 93.517 170.79 94.605 164.323 95.894 Z " fill="rgb(235,231,221)"></path><path d=" M 245.92 545.586 C 245.92 545.586 16.008 416.768 16.008 160.281 C 117.995 82.356 247.128 87.836 247.128 87.836 C 247.128 87.836 368.868 79.555 483.369 160.281 C 483.369 427.399 245.92 545.586 245.92 545.586 Z " fill="rgb(108,22,43)"></path><path d=" M 247.185 485.9 C 247.185 485.9 74.197 393.19 74.197 201.544 C 147.413 148.962 248.091 151.702 248.091 151.702 C 248.091 151.702 351.161 146.743 425.808 201.544 C 425.808 401.136 247.185 485.9 247.185 485.9 Z " fill="rgb(0,93,133)"></path><path d=" M 247.185 485.9 L 247.981 484.413 C 247.981 484.413 247.828 484.332 247.505 484.15 C 242.541 481.406 199.563 456.883 157.898 409.98 C 116.229 363.065 75.886 293.862 75.886 201.544 L 74.197 201.544 L 75.183 202.914 C 140.902 155.667 229.469 153.343 245.504 153.367 C 247.173 153.367 248.042 153.392 248.042 153.392 L 248.107 153.392 L 248.172 153.388 C 248.172 153.388 248.753 153.359 249.889 153.331 C 251.029 153.303 252.715 153.274 254.885 153.274 C 278.87 153.254 362.171 156.876 424.806 202.906 L 425.808 201.544 L 424.119 201.544 C 424.114 300.814 379.73 371.456 335.28 417.393 C 313.061 440.355 290.83 457.118 274.165 468.132 C 265.831 473.633 258.891 477.703 254.04 480.395 C 251.619 481.737 249.715 482.736 248.422 483.398 C 247.775 483.73 247.282 483.976 246.951 484.138 C 246.623 484.304 246.462 484.377 246.462 484.377 L 247.185 485.9 L 247.981 484.413 L 247.185 485.9 L 247.909 487.428 C 248.022 487.368 292.839 466.099 337.705 419.741 C 382.571 373.404 427.498 301.865 427.494 201.544 L 427.494 200.691 L 426.802 200.186 C 363.044 153.416 279.19 149.92 254.885 149.899 C 250.483 149.899 248.034 150.017 248.01 150.017 L 248.091 151.702 L 248.135 150.017 C 248.123 150.017 247.205 149.992 245.504 149.992 C 229.162 150.017 140.093 152.187 73.211 200.173 L 72.511 200.679 L 72.511 201.544 C 72.507 297.896 116.015 369.403 159.446 416.73 C 202.889 464.07 246.284 487.327 246.389 487.388 L 247.141 487.788 L 247.909 487.428 L 247.185 485.9 Z " fill="rgb(217,205,184)"></path><path d=" M 71.815 152.465 C 75.796 160.326 79.777 168.188 83.759 176.05 C 81.184 177.355 78.621 178.689 76.071 180.059 C 71.903 172.295 67.74 164.526 63.573 156.761 C 60.582 158.366 57.603 160.015 54.644 161.705 C 53.533 159.757 52.421 157.808 51.31 155.86 C 60.069 150.868 68.965 146.228 77.983 141.948 C 78.945 143.973 79.907 145.998 80.865 148.027 C 77.833 149.466 74.818 150.945 71.815 152.465 Z " fill="rgb(255,255,255)"></path><path d=" M 98.366 140.235 C 96.96 140.821 95.553 141.415 94.151 142.017 C 95.112 144.252 96.074 146.488 97.032 148.723 C 98.411 148.129 99.789 147.547 101.167 146.973 C 104.837 145.449 105.896 143.67 105.04 141.504 C 104.219 139.442 102.113 138.678 98.366 140.235 Z M 115.472 161.835 C 111.107 158.965 106.652 156.172 102.113 153.46 C 101.252 153.82 100.395 154.183 99.538 154.555 C 101.224 158.472 102.905 162.389 104.591 166.305 C 101.96 167.437 99.336 168.601 96.725 169.798 C 92.125 159.749 87.522 149.697 82.918 139.644 C 87.38 137.603 91.867 135.647 96.382 133.776 C 103.968 130.631 111.054 131.827 113.435 138.319 C 115.064 142.72 113.637 146.467 109.987 149.382 C 115.048 152.259 119.999 155.234 124.841 158.306 C 121.705 159.438 118.584 160.614 115.472 161.835 Z " fill="rgb(255,255,255)"></path><path d=" M 136.033 131.371 C 135.431 130.562 134.631 129.123 134.631 129.123 C 134.631 129.123 134.708 130.736 134.623 131.803 C 134.417 135.105 134.235 138.408 134.085 141.706 C 136.692 140.873 139.303 140.073 141.923 139.301 C 139.986 136.645 138.022 134.002 136.033 131.371 Z M 150.002 150.234 C 148.729 148.476 147.448 146.722 146.15 144.976 C 142.007 146.168 137.877 147.437 133.766 148.775 C 133.653 150.958 133.556 153.133 133.471 155.311 C 130.686 156.237 127.913 157.199 125.148 158.193 C 125.67 146.257 126.595 134.265 127.937 122.232 C 130.702 121.351 133.475 120.502 136.256 119.681 C 143.988 128.925 151.361 138.371 158.361 147.987 C 155.568 148.703 152.783 149.45 150.002 150.234 Z " fill="rgb(255,255,255)"></path><path d=" M 163.231 146.776 C 160.636 136.029 158.041 125.285 155.447 114.537 C 158.442 113.818 161.445 113.127 164.456 112.476 C 166.801 123.276 169.145 134.08 171.493 144.88 C 168.733 145.483 165.98 146.113 163.231 146.776 Z " fill="rgb(255,255,255)"></path><path d=" M 179.528 143.232 C 177.426 132.379 175.321 121.526 173.219 110.674 C 176.238 110.088 179.261 109.538 182.293 109.025 C 183.768 117.711 185.244 126.401 186.723 135.087 C 191.614 134.255 196.521 133.523 201.436 132.888 C 201.723 135.111 202.014 137.339 202.301 139.562 C 194.682 140.544 187.087 141.769 179.528 143.232 Z " fill="rgb(255,255,255)"></path><path d=" M 219.083 137.786 C 218.173 126.767 217.264 115.753 216.354 104.734 C 219.406 104.484 222.466 104.266 225.525 104.084 C 226.047 112.879 226.572 121.678 227.094 130.474 C 232.033 130.179 236.98 129.985 241.928 129.888 C 241.968 132.131 242.013 134.37 242.057 136.613 C 234.394 136.763 226.73 137.155 219.083 137.786 Z " fill="rgb(255,255,255)"></path><path d=" M 247.573 136.548 C 247.525 125.493 247.472 114.438 247.424 103.383 C 250.483 103.371 253.547 103.391 256.611 103.448 C 256.409 114.503 256.203 125.553 256.001 136.604 C 253.192 136.556 250.382 136.535 247.573 136.548 Z " fill="rgb(255,255,255)"></path><path d=" M 274.264 110.904 C 274.135 112.937 274.005 114.97 273.876 117.003 C 277.878 117.258 281.875 117.577 285.868 117.957 C 285.666 120.095 285.464 122.234 285.258 124.372 C 281.333 123.996 277.401 123.685 273.464 123.434 C 273.169 128.05 272.874 132.67 272.579 137.286 C 269.773 137.108 266.968 136.963 264.163 136.845 C 264.612 125.803 265.064 114.756 265.513 103.713 C 274.272 104.069 283.023 104.712 291.75 105.645 C 291.511 107.877 291.273 110.104 291.034 112.335 C 285.452 111.737 279.862 111.26 274.264 110.904 Z " fill="rgb(255,255,255)"></path><path d=" M 293.445 139.218 C 294.779 128.244 296.112 117.27 297.446 106.296 C 306.068 107.343 314.661 108.672 323.214 110.281 C 322.798 112.488 322.385 114.691 321.969 116.894 C 316.532 115.871 311.076 114.962 305.607 114.17 C 305.316 116.186 305.025 118.199 304.73 120.216 C 308.598 120.778 312.458 121.397 316.306 122.076 C 315.934 124.19 315.562 126.308 315.191 128.422 C 311.403 127.755 307.608 127.144 303.804 126.595 C 303.465 128.955 303.121 131.316 302.782 133.672 C 308.578 134.513 314.366 135.491 320.13 136.607 C 319.701 138.809 319.277 141.012 318.853 143.211 C 310.421 141.582 301.945 140.248 293.445 139.218 Z " fill="rgb(255,255,255)"></path><path d=" M 368.713 142.26 C 365.823 150.793 357.666 153.283 349.493 150.963 C 341.373 148.643 335.746 142.224 337.788 133.449 C 339.312 127.091 340.839 120.733 342.359 114.379 C 345.358 115.094 348.349 115.85 351.332 116.638 C 349.631 123.081 347.925 129.524 346.223 135.967 C 345.023 140.551 347.577 143.42 351.336 144.496 C 355.095 145.563 358.786 144.471 360.184 139.944 C 362.132 133.57 364.077 127.196 366.025 120.822 C 368.988 121.727 371.938 122.669 374.881 123.643 L 368.713 142.26 Z " fill="rgb(255,255,255)"></path><path d=" M 382.913 162.813 C 376.232 160.19 372.558 154.697 371.357 152.114 C 373.892 151.411 376.442 150.728 379.013 150.077 C 380.492 152.943 382.865 155.461 385.613 156.544 C 388.762 157.789 390.961 157.066 391.664 155.352 C 393.507 150.89 375.816 144.447 379.122 134.859 C 381.026 129.358 388.176 127.604 396.256 130.797 C 403.681 133.731 406.907 140.352 406.894 140.34 C 404.397 140.906 401.919 141.5 399.453 142.115 C 399.461 142.119 397.327 138.655 393.714 137.228 C 390.431 135.934 388.6 136.52 388.014 138.069 C 386.442 142.24 404.279 149.075 399.962 158.767 C 397.133 165.125 389.191 165.263 382.913 162.813 Z " fill="rgb(255,255,255)"></path><path d=" M 425.911 157.024 C 426.036 156.026 426.453 154.429 426.453 154.429 C 426.453 154.429 425.382 155.638 424.573 156.345 C 422.112 158.568 419.674 160.807 417.261 163.067 C 419.747 164.3 422.229 165.557 424.69 166.846 C 425.127 163.58 425.531 160.306 425.911 157.024 Z M 422.989 180.371 C 423.284 178.212 423.563 176.054 423.833 173.887 C 419.945 171.826 416.028 169.833 412.088 167.917 C 410.487 169.405 408.894 170.896 407.31 172.4 C 404.634 171.118 401.946 169.874 399.246 168.661 C 407.936 160.444 416.978 152.481 426.364 144.789 C 429.003 146.099 431.631 147.433 434.25 148.803 C 433.47 160.868 432.297 172.828 430.737 184.667 C 428.171 183.2 425.584 181.769 422.989 180.371 Z " fill="rgb(255,255,255)"></path><path d=" M 127.099 375.181 L 122.706 366.855 L 104.953 334.487 L 128.441 374.591 L 127.099 375.181 Z " fill="rgb(225,217,201)"></path><path d=" M 247.231 484.001 C 243.666 482.013 227.765 472.825 206.993 456.342 L 171.626 424.629 C 167.07 420.017 162.479 415.13 157.899 409.981 C 148.3 399.173 138.769 387.18 129.787 373.999 L 220.643 334.081 L 273.261 317.024 L 358.955 290.379 L 353.264 290.217 L 219.539 307.113 L 105.673 332.339 C 97.779 315.969 91.009 298.249 85.928 279.183 L 96.764 274.833 L 169.738 289.587 L 204.321 284.138 L 295.642 289.025 L 359.513 290.298 L 413.78 281.588 C 398.073 340.115 366.695 384.929 335.281 417.394 C 313.062 440.356 290.828 457.118 274.163 468.129 C 265.832 473.634 258.892 477.704 254.042 480.392 C 251.616 481.738 249.717 482.736 248.423 483.395 C 247.938 483.646 247.538 483.848 247.231 484.001 Z M 104.42 282.764 L 114.185 295.229 L 158.671 291.66 L 104.42 282.764 Z " fill="rgb(57,113,150)"></path><path d=" M 247.185 485.9 L 221.179 469.062 L 206.992 456.341 C 227.768 472.829 243.665 482.012 247.23 484.001 C 247.541 483.847 247.937 483.645 248.422 483.398 C 249.715 482.736 251.619 481.737 254.04 480.395 C 258.891 477.703 265.831 473.633 274.165 468.132 C 290.83 457.118 313.061 440.355 335.28 417.393 C 366.698 384.928 398.076 340.115 413.783 281.591 L 416.673 281.126 L 397.708 328.389 L 378.869 366.42 L 351.993 401.468 L 317.803 438.031 L 279.392 467.465 L 247.185 485.9 Z M 247.981 484.413 L 247.185 485.9 L 247.981 484.413 Z M 171.629 424.628 L 157.025 411.536 L 130.13 377.47 L 128.44 374.589 L 129.79 373.998 C 138.771 387.179 148.302 399.172 157.898 409.98 C 162.478 415.134 167.069 420.016 171.629 424.628 Z M 104.952 334.484 L 102.992 331.137 L 83.445 280.18 L 85.931 279.182 C 91.011 298.252 97.778 315.968 105.672 332.342 L 103.982 332.718 L 104.952 334.484 Z " fill="rgb(223,213,197)"></path><path d=" M 129.789 373.998 C 121.091 361.233 112.91 347.353 105.675 332.341 L 219.541 307.111 L 353.265 290.22 L 358.957 290.382 L 273.259 317.022 L 220.64 334.08 L 129.789 373.998 Z " fill="rgb(111,143,173)"></path><path d=" M 128.441 374.59 L 104.953 334.485 L 103.979 332.715 L 105.673 332.339 C 112.912 347.351 121.089 361.231 129.787 374 L 128.441 374.59 Z " fill="rgb(232,223,211)"></path><path d=" M 241.072 206.24 C 223.441 185.428 249.637 158.367 261.221 172.538 C 260.021 171.77 244.043 169.652 246.933 185.493 C 249.597 200.836 253.097 195.121 262.212 219.029 C 268.141 236.992 248.93 256.296 229.451 253.98 C 247.77 246.066 241.82 226.074 230.005 210.687 C 220.034 197.696 244.969 220.553 241.072 206.24 Z " fill="rgb(247,146,30)"></path><path d=" M 273.652 207.72 C 264.521 187.094 287.281 169.544 293.211 183.505 C 292.487 182.648 281.554 177.866 281.081 191.577 C 280.531 204.838 283.894 200.74 286.546 222.328 C 287.883 238.366 271.267 250.795 257.884 245.193 C 272.079 242.081 271.028 224.337 265.147 209.321 C 260.168 196.641 274.137 220.339 273.652 207.72 Z " fill="rgb(247,146,30)"></path><path d=" M 216.544 219.315 C 201.937 208.026 212.179 186.688 221.876 194.425 C 221.011 194.089 211.083 194.861 215.93 204.881 C 220.554 214.606 221.5 210.37 231.649 224.84 C 238.723 235.843 231.107 251.146 219.054 252.265 C 228.407 244.581 220.905 232.253 210.833 223.741 C 202.333 216.55 221.69 228.191 216.544 219.315 Z " fill="rgb(247,146,30)"></path><path d=" M 250.581 291.499 L 251.979 295.804 L 248.305 293.153 L 244.647 295.804 L 246.042 291.499 L 242.376 288.836 L 246.907 288.836 L 248.305 284.527 L 249.708 288.836 L 254.243 288.836 L 250.581 291.499 Z M 252.283 389.06 C 252.283 391.118 250.718 392.795 248.798 392.795 C 246.87 392.795 245.306 391.118 245.306 389.06 L 245.306 306.94 C 245.306 304.886 246.87 303.213 248.798 303.213 C 250.718 303.213 252.283 304.886 252.283 306.94 L 252.283 389.06 Z M 208.371 258.642 L 208.371 268.044 L 208.371 269.495 L 208.371 271.253 C 208.371 273.686 210.359 275.679 212.801 275.679 L 221.859 275.679 L 221.859 280.986 L 234.057 280.986 C 233.9 281.495 233.819 282.041 233.831 282.611 L 233.92 285.081 L 234.102 284.527 L 235.5 288.836 L 240.027 288.836 L 236.377 291.499 L 237.776 295.804 L 234.174 293.209 L 234.494 303.128 C 236.244 303.274 237.659 304.818 237.723 306.729 L 240.69 388.81 C 240.747 390.637 239.554 392.205 237.933 392.565 L 238.14 398.979 L 236.547 398.979 L 236.547 401.489 C 234.676 402.278 233.342 404.129 233.342 406.279 L 233.342 408.288 C 233.342 410.442 234.676 412.294 236.547 413.07 L 236.547 415.547 L 238.653 415.547 L 238.685 416.344 C 238.778 419.185 241.175 421.513 244.025 421.513 L 253.568 421.513 C 256.413 421.513 258.81 419.185 258.903 416.344 L 258.927 415.547 L 261.041 415.547 L 261.041 413.07 C 262.917 412.294 264.251 410.442 264.251 408.288 L 264.251 406.279 C 264.251 404.129 262.917 402.278 261.041 401.489 L 261.041 398.979 L 259.457 398.979 L 259.663 392.512 C 258.147 392.076 257.048 390.56 257.097 388.81 L 260.079 306.738 C 260.136 304.89 261.446 303.395 263.095 303.156 L 263.41 293.395 L 260.079 295.804 L 261.478 291.499 L 257.812 288.836 L 262.335 288.836 L 263.681 284.701 L 263.754 282.611 C 263.77 282.041 263.693 281.495 263.535 280.986 L 275.726 280.986 L 275.726 275.679 L 284.792 275.679 C 287.229 275.679 289.222 273.686 289.222 271.253 L 289.222 269.495 L 289.222 268.044 L 289.222 258.642 L 208.371 258.642 Z " fill="rgb(211,184,42)"></path><path d=" M 240.689 388.81 L 237.726 306.729 C 237.661 304.818 236.242 303.274 234.492 303.128 L 237.936 392.565 C 239.553 392.205 240.745 390.637 240.689 388.81 Z " fill="rgb(158,158,158)"></path><path d=" M 260.078 306.739 L 257.099 388.811 C 257.05 390.562 258.146 392.073 259.666 392.514 L 263.093 303.158 C 261.444 303.396 260.134 304.892 260.078 306.739 Z " fill="rgb(158,158,158)"></path><path d=" M 248.798 303.213 C 246.87 303.213 245.306 304.89 245.306 306.943 L 245.306 389.06 C 245.306 391.117 246.87 392.799 248.798 392.799 C 250.718 392.799 252.282 391.117 252.282 389.06 L 252.282 306.943 C 252.282 304.89 250.718 303.213 248.798 303.213 Z " fill="rgb(158,158,158)"></path><path d=" M 248.307 284.529 L 246.909 288.833 L 242.378 288.833 L 246.04 291.501 L 244.645 295.806 L 248.307 293.15 L 251.981 295.806 L 250.583 291.501 L 254.241 288.833 L 249.706 288.833 L 248.307 284.529 Z " fill="rgb(158,158,158)"></path><path d=" M 257.812 288.835 L 261.478 291.499 L 260.079 295.804 L 263.41 293.395 L 263.681 284.7 L 262.335 288.835 L 257.812 288.835 Z " fill="rgb(158,158,158)"></path><path d=" M 236.375 291.499 L 240.029 288.836 L 235.502 288.836 L 234.1 284.527 L 233.918 285.081 L 234.177 293.209 L 237.774 295.804 L 236.375 291.499 Z " fill="rgb(158,158,158)"></path><path d=" M 250.581 291.499 L 251.979 295.804 L 248.305 293.153 L 244.647 295.804 L 246.042 291.499 L 242.376 288.836 L 246.907 288.836 L 248.305 284.527 L 249.708 288.836 L 254.243 288.836 L 250.581 291.499 Z M 252.283 389.06 C 252.283 391.118 250.718 392.795 248.798 392.795 C 246.87 392.795 245.306 391.118 245.306 389.06 L 245.306 306.94 C 245.306 304.886 246.87 303.213 248.798 303.213 C 250.718 303.213 252.283 304.886 252.283 306.94 L 252.283 389.06 Z M 208.371 258.642 L 208.371 268.044 L 208.371 269.495 L 208.371 271.253 C 208.371 273.686 210.359 275.679 212.801 275.679 L 221.859 275.679 L 221.859 280.986 L 234.057 280.986 C 233.9 281.495 233.819 282.041 233.831 282.611 L 233.92 285.081 L 234.102 284.527 L 235.5 288.836 L 240.027 288.836 L 236.377 291.499 L 237.776 295.804 L 234.174 293.209 L 234.494 303.128 C 236.244 303.274 237.659 304.818 237.723 306.729 L 240.69 388.81 C 240.747 390.637 239.554 392.205 237.933 392.565 L 238.14 398.979 L 236.547 398.979 L 236.547 401.489 C 234.676 402.278 233.342 404.129 233.342 406.279 L 233.342 408.288 C 233.342 410.442 234.676 412.294 236.547 413.07 L 236.547 415.547 L 238.653 415.547 L 238.685 416.344 C 238.778 419.185 241.175 421.513 244.025 421.513 L 253.568 421.513 C 256.413 421.513 258.81 419.185 258.903 416.344 L 258.927 415.547 L 261.041 415.547 L 261.041 413.07 C 262.917 412.294 264.251 410.442 264.251 408.288 L 264.251 406.279 C 264.251 404.129 262.917 402.278 261.041 401.489 L 261.041 398.979 L 259.457 398.979 L 259.663 392.512 C 258.147 392.076 257.048 390.56 257.097 388.81 L 260.079 306.738 C 260.136 304.89 261.446 303.395 263.095 303.156 L 263.41 293.395 L 260.079 295.804 L 261.478 291.499 L 257.812 288.836 L 262.335 288.836 L 263.681 284.701 L 263.754 282.611 C 263.77 282.041 263.693 281.495 263.535 280.986 L 275.726 280.986 L 275.726 275.679 L 284.792 275.679 C 287.229 275.679 289.222 273.686 289.222 271.253 L 289.222 269.495 L 289.222 268.044 L 289.222 258.642 L 208.371 258.642 Z " fill="rgb(217,205,184)"></path><path d=" M 75.885 202.411 C 76.386 383.827 234.872 477.023 247.233 483.999 C 253.344 480.939 294.612 459.448 335.372 417.307 C 375.743 375.561 423.846 304.422 424.117 202.399 C 350.852 149.101 249.189 153.337 248.17 153.39 C 247.059 153.378 147.731 151.288 75.885 202.411 Z M 247.14 487.794 L 246.388 487.39 C 244.65 486.457 72.51 391.996 72.51 201.546 L 72.51 200.681 L 73.213 200.172 C 146.05 147.861 247.111 149.987 248.134 150.019 C 249.043 149.975 352.534 145.658 426.805 200.184 L 427.492 200.689 L 427.492 201.546 C 427.492 305.211 378.669 377.42 337.708 419.74 C 293.351 465.572 248.36 487.212 247.908 487.427 L 247.14 487.794 Z " fill="rgb(217,205,184)"></path><path d=" M 379.175 485.332 C 294.014 464.629 207.569 464.629 122.408 485.332 C 120.747 465.409 119.086 445.486 117.425 425.559 C 205.891 404.056 295.692 404.056 384.158 425.559 C 382.497 445.482 380.836 465.409 379.175 485.332 Z " fill="rgb(158,158,158)"></path><path d=" M 379.175 485.332 C 294.014 464.629 207.569 464.629 122.408 485.332 C 120.747 465.409 119.086 445.486 117.425 425.559 C 205.891 404.056 295.692 404.056 384.158 425.559 C 382.497 445.482 380.836 465.409 379.175 485.332 Z " fill="rgb(158,158,158)"></path><path d=" M 169.19 462.114 C 168.621 457.732 168.055 453.347 167.485 448.965 C 163.689 449.458 159.898 449.984 156.111 450.542 C 156.753 454.915 157.4 459.288 158.043 463.658 C 155.541 464.026 153.043 464.41 150.545 464.806 C 148.912 454.559 147.279 444.305 145.642 434.054 C 148.261 433.638 150.88 433.234 153.504 432.85 C 154.069 436.694 154.635 440.538 155.201 444.382 C 159.025 443.82 162.853 443.29 166.684 442.793 C 166.187 438.937 165.686 435.085 165.185 431.233 C 167.812 430.894 170.44 430.566 173.071 430.259 C 174.283 440.566 175.496 450.873 176.709 461.184 C 174.203 461.479 171.696 461.79 169.19 462.114 Z " fill="rgb(255,255,255)"></path><path d=" M 195.414 433.991 C 191.263 434.342 188.316 437.802 188.951 444.31 C 189.602 450.999 193.037 453.61 197.051 453.271 C 201.065 452.931 204.007 449.774 203.522 443.073 C 203.053 436.557 199.565 433.639 195.414 433.991 Z M 197.593 459.698 C 189.238 460.405 182.29 455.409 181.138 445.106 C 179.986 434.767 186.029 428.312 194.868 427.56 C 203.712 426.812 210.749 432.16 211.352 442.547 C 211.958 452.899 205.955 458.986 197.593 459.698 Z " fill="rgb(255,255,255)"></path><path d=" M 228.829 432.356 C 227.527 432.4 226.226 432.449 224.928 432.502 C 225.021 434.785 225.114 437.065 225.207 439.349 C 226.493 439.296 227.782 439.248 229.067 439.199 C 232.487 439.086 233.869 437.853 233.813 435.674 C 233.76 433.585 232.289 432.239 228.829 432.356 Z M 236.299 456.968 C 233.538 453.031 230.729 449.11 227.867 445.209 C 227.063 445.238 226.254 445.27 225.446 445.302 C 225.607 449.304 225.769 453.301 225.931 457.303 C 223.413 457.404 220.891 457.521 218.372 457.651 C 217.835 447.287 217.293 436.923 216.748 426.556 C 220.883 426.338 225.021 426.164 229.16 426.022 C 236.1 425.788 241.444 429.058 241.533 435.553 C 241.594 439.959 239.346 442.833 235.502 444.215 C 238.776 448.395 241.994 452.594 245.146 456.814 C 242.196 456.846 239.245 456.899 236.299 456.968 Z " fill="rgb(255,255,255)"></path><path d=" M 248.273 456.79 C 248.212 446.41 248.156 436.03 248.095 425.65 C 250.739 425.638 253.382 425.638 256.025 425.654 C 255.965 436.034 255.9 446.414 255.835 456.794 C 253.313 456.778 250.795 456.778 248.273 456.79 Z " fill="rgb(255,255,255)"></path><path d=" M 261.253 456.849 C 265.796 448.639 270.513 440.479 275.396 432.375 C 271.067 432.217 266.734 432.108 262.405 432.039 C 262.437 429.933 262.47 427.831 262.502 425.722 C 270.747 425.851 278.993 426.134 287.231 426.566 C 282.312 434.594 277.558 442.674 272.967 450.806 C 277.498 450.952 282.029 451.146 286.556 451.388 C 286.442 453.494 286.333 455.596 286.22 457.694 C 277.902 457.249 269.579 456.97 261.253 456.849 Z " fill="rgb(255,255,255)"></path><path d=" M 305.561 433.759 C 301.41 433.423 297.934 436.354 297.494 442.877 C 297.041 449.583 299.996 452.719 304.013 453.047 C 308.027 453.37 311.451 450.743 312.073 444.053 C 312.679 437.546 309.713 434.094 305.561 433.759 Z M 303.492 459.478 C 295.133 458.803 289.103 452.736 289.66 442.38 C 290.222 431.992 297.235 426.616 306.079 427.328 C 314.927 428.043 321.002 434.47 319.89 444.813 C 318.787 455.124 311.859 460.149 303.492 459.478 Z " fill="rgb(255,255,255)"></path><path d=" M 344.815 463.522 C 341.731 457.035 338.53 450.564 335.216 444.121 C 334.816 443.353 334.327 442.128 334.322 442.128 C 333.506 448.676 332.685 455.22 331.865 461.768 C 329.375 461.457 326.885 461.158 324.391 460.875 C 325.559 450.564 326.728 440.249 327.896 429.934 C 330.377 430.217 332.859 430.512 335.341 430.819 C 338.716 437.262 341.982 443.729 345.131 450.22 C 345.551 451.089 346.064 452.29 346.064 452.29 C 347.014 445.742 347.964 439.198 348.914 432.654 C 351.521 433.034 354.128 433.43 356.727 433.838 C 355.118 444.089 353.506 454.343 351.893 464.598 C 349.536 464.226 347.176 463.87 344.815 463.522 Z " fill="rgb(255,255,255)"></path></g></g></g></svg> 