<?xml version="1.0" encoding="UTF-8" standalone="no"?> <svg xmlns="http://www.w3.org/2000/svg" xmlns:xlink="http://www.w3.org/1999/xlink" style="isolation:isolate" viewBox="0 0 500 420.417" width="500pt" height="420.417pt"><switch><g><clipPath id="_clipPath_zMXoarh2ga2f82OUF8TLZJlQq3m7tqmY"><path d=" M 0 420.417 L 500 420.417 L 500 0 L 0 0 L 0 420.417 Z " fill="rgb(255,255,255)"></path></clipPath><g clip-path="url(#_clipPath_zMXoarh2ga2f82OUF8TLZJlQq3m7tqmY)"><path d=" M 245.787 407.792 C 245.787 407.792 16.557 291.953 16.557 52.488 C 139.4 23.102 369.811 27.843 482.694 52.488 C 482.694 301.879 245.787 407.792 245.787 407.792 Z " fill="rgb(22,58,102)"></path><path d=" M 245.787 407.792 L 247.114 405.168 C 247.114 405.168 246.913 405.067 246.489 404.848 C 239.95 401.439 183.06 370.826 127.941 312.315 C 72.805 253.778 19.5 167.53 19.496 52.488 L 16.557 52.488 L 17.241 55.348 C 75.581 41.386 158.792 35.12 241.953 35.129 C 332.707 35.12 423.523 42.574 482.069 55.361 L 482.694 52.488 L 479.755 52.488 C 479.746 176.206 421.05 264.234 362.189 321.553 C 332.766 350.196 303.321 371.112 281.25 384.848 C 270.214 391.722 261.026 396.794 254.606 400.149 C 251.397 401.825 248.878 403.068 247.169 403.895 C 246.316 404.307 245.666 404.613 245.229 404.815 C 244.792 405.016 244.586 405.109 244.586 405.109 L 245.787 407.792 L 247.114 405.168 L 245.787 407.792 L 246.988 410.475 C 247.181 410.383 306.68 383.785 366.292 325.769 C 425.887 267.786 485.646 178.162 485.634 52.488 L 485.634 50.12 L 483.324 49.616 C 424.056 36.687 333.055 29.254 241.953 29.246 C 158.477 29.254 75.014 35.49 15.872 49.629 L 13.617 50.17 L 13.617 52.488 C 13.613 173.203 71.424 262.772 129.066 321.99 C 186.721 381.236 244.28 410.32 244.46 410.417 L 245.712 411.047 L 246.988 410.475 L 245.787 407.792 Z " fill="rgb(0,0,0)"></path><path d=" M 250.91 72.126 L 255.555 89.04 L 273.078 88.23 L 258.423 97.876 L 264.608 114.29 L 250.91 103.335 L 237.213 114.29 L 243.398 97.876 L 228.743 88.23 L 246.266 89.04 L 250.91 72.126 Z " fill="rgb(255,255,255)"></path><path d=" M 188.862 76.942 L 195.597 93.138 L 212.877 90.127 L 199.557 101.541 L 207.758 117.044 L 192.788 107.902 L 180.577 120.496 L 184.65 103.43 L 168.899 95.708 L 186.384 94.305 L 188.862 76.942 Z " fill="rgb(255,255,255)"></path><path d=" M 124.92 89.799 L 133.726 104.971 L 150.464 99.713 L 138.756 112.777 L 148.927 127.071 L 132.886 119.974 L 122.434 134.063 L 124.227 116.611 L 107.598 111.03 L 124.748 107.339 L 124.92 89.799 Z " fill="rgb(255,255,255)"></path><path d=" M 59.8 109.488 L 70.886 123.081 L 86.587 115.257 L 77.08 130.001 L 89.375 142.514 L 72.415 138.034 L 64.314 153.592 L 63.336 136.077 L 46.035 133.18 L 62.391 126.839 L 59.8 109.488 Z " fill="rgb(255,255,255)"></path><path d=" M 315.158 76.942 L 308.427 93.138 L 291.143 90.127 L 304.467 101.541 L 296.262 117.044 L 311.232 107.902 L 323.443 120.496 L 319.374 103.43 L 335.121 95.708 L 317.636 94.305 L 315.158 76.942 Z " fill="rgb(255,255,255)"></path><path d=" M 379.101 89.799 L 370.291 104.971 L 353.557 99.713 L 365.265 112.777 L 355.094 127.071 L 371.135 119.974 L 381.587 134.063 L 379.794 116.611 L 396.423 111.03 L 379.273 107.339 L 379.101 89.799 Z " fill="rgb(255,255,255)"></path><path d=" M 444.222 109.488 L 433.136 123.081 L 417.435 115.257 L 426.938 130.001 L 414.647 142.514 L 431.603 138.034 L 439.708 153.592 L 440.686 136.077 L 457.987 133.18 L 441.631 126.839 L 444.222 109.488 Z " fill="rgb(255,255,255)"></path><path d=" M 384.528 185.25 L 311.008 183.914 C 310.126 183.898 309.248 183.742 308.413 183.461 L 264.997 159.307 C 247.516 153.222 235.586 159.282 233.818 159.878 L 164.098 183.369 C 161.957 184.091 159.614 183.931 157.59 182.928 L 101.278 154.969 C 99.481 154.079 97.432 153.848 95.483 154.323 L 49.111 165.581 C 43.178 167.021 40.646 174.055 44.299 178.951 L 76.314 235.33 L 113.574 278.544 C 113.792 278.884 114.035 279.207 114.3 279.514 L 145.236 315.157 C 145.555 315.522 145.907 315.862 146.285 316.169 L 221.094 377.191 C 221.43 377.464 221.783 377.712 222.157 377.931 L 248.293 393.325 C 250.821 394.811 253.941 394.895 256.548 393.539 L 289.966 376.138 C 290.293 375.97 290.604 375.776 290.902 375.571 L 335.317 344.614 C 335.695 344.349 336.052 344.051 336.384 343.728 L 376.028 305.167 L 376.599 304.549 L 407.564 267.819 C 407.934 267.382 408.257 266.908 408.534 266.404 L 430.232 226.553 L 430.547 225.919 L 455.897 178.594 C 458.602 172.467 444.224 176.65 437.601 177.616 L 385.913 185.162 C 385.456 185.229 384.994 185.258 384.528 185.25 Z " fill="rgb(19,106,55)"></path><path d=" M 175.776 356.775 C 174.655 355.859 173.53 354.931 172.396 353.99 C 147.721 313.456 120.15 311.285 104.297 283.381 C 106.254 280.387 108.304 277.561 110.424 274.894 L 113.574 278.543 C 113.792 278.883 114.035 279.207 114.3 279.513 L 145.236 315.156 C 145.555 315.522 145.907 315.862 146.285 316.168 L 183.322 346.382 C 180.715 349.812 178.191 353.281 175.776 356.775 Z " fill="rgb(70,85,122)"></path><path d=" M 174.835 358.146 C 174.025 356.714 173.21 355.333 172.395 353.989 C 173.529 354.934 174.654 355.857 175.776 356.773 C 175.461 357.231 175.146 357.684 174.835 358.146 Z " fill="rgb(56,56,56)"></path><path d=" M 174.835 358.146 C 174.025 356.714 173.21 355.333 172.395 353.989 C 173.529 354.934 174.654 355.857 175.776 356.773 C 175.461 357.231 175.146 357.684 174.835 358.146 Z " fill="rgb(21,15,11)"></path><path d=" M 384.682 185.251 L 384.527 185.251 L 382.41 185.213 C 383.359 185.226 384.14 185.234 384.69 185.234 C 384.867 185.234 385.022 185.234 385.148 185.23 C 385.144 185.234 385.144 185.239 385.14 185.239 C 384.989 185.247 384.837 185.251 384.682 185.251 Z M 378.585 185.142 L 356.942 184.747 C 357.135 184.743 357.383 184.743 357.685 184.743 C 360.096 184.743 365.781 184.865 371.4 184.987 C 373.911 185.041 376.405 185.096 378.585 185.142 Z " fill="rgb(70,85,122)"></path></g><clipPath id="_clipPath_ESY3EAgoyuMq6Pged1COIPIfoFl4suLu"><path d=" M 4.313 420.417 L 495.692 420.417 L 495.692 0 L 4.313 0 L 4.313 420.417 Z " fill="rgb(255,255,255)"></path></clipPath><g clip-path="url(#_clipPath_ESY3EAgoyuMq6Pged1COIPIfoFl4suLu)"><path d=" M 183.324 346.382 L 146.287 316.168 C 145.909 315.862 145.556 315.522 145.237 315.156 L 114.301 279.513 C 114.037 279.207 113.793 278.883 113.571 278.543 L 110.425 274.894 C 140.479 237.139 186.381 230.907 224.367 230.907 C 239.727 230.907 253.799 231.924 264.998 232.293 C 268.82 232.877 272.368 233.154 275.702 233.154 C 308.028 233.15 319.911 207.157 356.94 184.75 L 378.587 185.14 C 380.027 185.17 381.329 185.195 382.408 185.212 L 384.529 185.249 L 384.68 185.249 C 384.835 185.249 384.987 185.245 385.138 185.237 C 370.184 198.418 332.937 224.201 317.988 242.254 C 303.035 261.28 296.69 257.165 281.741 263.308 C 254.534 273.21 213.096 307.278 183.324 346.382 Z " fill="rgb(78,126,82)"></path><path d=" M 246.162 406.446 L 251.852 395.179 L 251.848 395.179 C 250.861 394.701 194.638 365.823 139.284 308.44 C 111.59 279.76 84.119 243.995 63.627 201.188 C 43.135 158.356 29.563 108.529 29.55 51.142 L 16.932 51.142 L 19.867 63.416 C 48.346 56.597 83.346 51.571 121.496 48.295 C 159.65 45.011 200.987 43.458 242.328 43.462 C 287.449 43.458 332.586 45.31 373.655 48.744 C 414.71 52.175 451.739 57.214 480.377 63.471 L 483.069 51.142 L 470.451 51.142 C 470.438 111.481 456.173 162.824 434.736 206.282 C 402.604 271.429 354.074 318.787 313.467 349.748 C 293.181 365.222 274.91 376.593 261.788 384.056 C 255.228 387.785 249.954 390.539 246.36 392.341 C 244.562 393.243 243.189 393.903 242.278 394.335 C 241.825 394.549 241.489 394.705 241.274 394.806 L 241.048 394.906 L 241.006 394.927 L 241.913 396.939 L 241.01 394.923 L 241.006 394.927 L 241.913 396.939 L 241.01 394.923 L 246.162 406.446 L 251.852 395.179 L 246.162 406.446 L 251.315 417.964 C 252.146 417.565 312.543 390.568 373.419 331.355 C 403.838 301.743 434.384 264.017 457.37 217.452 C 480.357 170.912 495.7 115.495 495.692 51.142 L 495.692 40.98 L 485.765 38.813 C 455.497 32.212 417.616 27.098 375.763 23.591 C 333.913 20.093 288.138 18.22 242.328 18.22 C 200.353 18.22 158.357 19.791 119.334 23.146 C 80.298 26.51 44.256 31.633 13.996 38.868 L 4.313 41.186 L 4.313 51.142 C 4.3 113.034 19.166 167.15 41.384 213.165 C 74.73 282.221 124.389 333.14 165.638 366.927 C 206.912 400.71 239.885 417.406 240.472 417.708 L 245.831 420.417 L 251.315 417.964 L 246.162 406.446 Z " fill="rgb(6,6,6)"></path><path d=" M 99.669 66.285 C 96.809 66.482 94.303 64.307 94.097 61.452 C 92.908 44.613 91.716 27.774 90.523 10.935 C 90.317 8.075 92.556 5.569 95.499 5.367 C 199.997 -1.788 304.864 -1.788 409.361 5.367 C 412.3 5.564 414.543 8.075 414.337 10.935 C 413.144 27.774 411.956 44.613 410.763 61.452 C 410.558 64.311 408.055 66.482 405.191 66.285 C 303.469 59.323 201.391 59.323 99.669 66.285 Z " fill="rgb(3,3,3)"></path></g><clipPath id="_clipPath_zHfNKyzx7gfBbnCTYWb9yxbdEJ3l5Pax"><path d=" M 0 420.417 L 500 420.417 L 500 0 L 0 0 L 0 420.417 Z " fill="rgb(255,255,255)"></path></clipPath><g clip-path="url(#_clipPath_zHfNKyzx7gfBbnCTYWb9yxbdEJ3l5Pax)"><path d=" M 121.572 25.392 C 121.668 26.983 121.765 28.571 121.857 30.162 C 124.532 30.003 127.207 29.847 129.882 29.696 C 129.979 31.371 130.071 33.051 130.168 34.727 C 127.497 34.878 124.83 35.033 122.164 35.197 C 122.378 38.808 122.596 42.42 122.811 46.031 C 120.849 46.149 118.888 46.27 116.923 46.392 C 116.382 37.763 115.844 29.133 115.302 20.504 C 120.984 20.147 126.67 19.811 132.355 19.5 C 132.452 21.251 132.544 23.002 132.641 24.754 C 128.95 24.959 125.263 25.169 121.572 25.392 Z " fill="rgb(252,253,255)"></path><path d=" M 146.644 23.731 C 143.499 23.887 141.164 26.637 141.445 32.079 C 141.735 37.669 144.309 39.987 147.429 39.831 C 150.545 39.68 152.884 37.127 152.628 31.534 C 152.38 26.096 149.785 23.58 146.644 23.731 Z M 147.69 45.198 C 141.139 45.517 135.919 41.015 135.449 32.394 C 134.974 23.736 139.74 18.688 146.384 18.365 C 153.027 18.041 158.263 22.602 158.629 31.265 C 158.998 39.894 154.24 44.879 147.69 45.198 Z " fill="rgb(252,253,255)"></path><path d=" M 171.977 22.94 C 170.99 22.978 170.008 23.016 169.021 23.054 C 169.096 24.952 169.168 26.854 169.243 28.756 C 170.226 28.718 171.209 28.681 172.191 28.643 C 174.803 28.546 175.844 27.509 175.781 25.695 C 175.718 23.952 174.597 22.844 171.977 22.94 Z M 177.898 43.42 C 175.706 40.157 173.506 36.898 171.292 33.644 C 170.675 33.669 170.054 33.694 169.432 33.715 C 169.562 37.05 169.688 40.384 169.819 43.714 C 167.853 43.789 165.888 43.869 163.923 43.949 C 163.566 35.311 163.209 26.669 162.856 18.031 C 165.968 17.901 169.084 17.779 172.195 17.666 C 177.415 17.473 181.48 20.123 181.652 25.531 C 181.774 29.197 180.098 31.624 177.155 32.804 C 179.712 36.26 182.257 39.72 184.793 43.189 C 182.496 43.26 180.195 43.34 177.898 43.42 Z " fill="rgb(252,253,255)"></path><path d=" M 187.231 43.114 C 186.966 34.472 186.702 25.83 186.441 17.184 C 192.068 17.012 197.695 16.861 203.322 16.735 C 203.364 18.486 203.402 20.241 203.44 21.992 C 199.811 22.076 196.179 22.168 192.547 22.269 C 192.593 23.865 192.639 25.456 192.681 27.048 C 195.285 26.977 197.884 26.909 200.487 26.846 C 200.53 28.526 200.571 30.206 200.609 31.885 C 198.014 31.948 195.419 32.016 192.824 32.087 C 192.874 33.951 192.929 35.816 192.979 37.68 C 197.006 37.567 201.033 37.466 205.06 37.378 C 205.098 39.133 205.136 40.884 205.178 42.64 C 199.194 42.774 193.21 42.929 187.231 43.114 Z " fill="rgb(252,253,255)"></path><path d=" M 217.305 43.142 C 212.341 43.226 208.604 40.19 207.235 38.628 C 208.684 37.423 210.133 36.218 211.586 35.017 C 213.219 36.692 215.357 37.839 217.364 37.805 C 219.669 37.763 220.841 36.562 220.82 35.118 C 220.765 31.439 208.18 31.888 208.004 23.859 C 207.907 19.303 211.779 16.104 217.301 16.011 C 222.369 15.927 225.985 19.593 225.985 19.593 C 224.675 20.794 223.364 21.999 222.058 23.204 C 222.058 23.204 219.9 21.382 217.389 21.424 C 215.105 21.462 214.147 22.407 214.172 23.704 C 214.239 27.286 226.749 26.761 226.846 34.962 C 226.909 40.409 221.974 43.062 217.305 43.142 Z " fill="rgb(252,253,255)"></path><path d=" M 241.381 21.45 C 241.418 28.341 241.46 35.236 241.502 42.127 C 239.533 42.14 237.572 42.153 235.607 42.169 C 235.548 35.278 235.489 28.383 235.43 21.492 C 233.259 21.509 231.088 21.53 228.917 21.555 C 228.896 19.804 228.88 18.049 228.859 16.294 C 235.187 16.222 241.515 16.176 247.843 16.159 C 247.847 17.915 247.852 19.666 247.856 21.421 C 245.698 21.429 243.539 21.438 241.381 21.45 Z " fill="rgb(252,253,255)"></path><path d=" M 277.794 24.987 C 277.575 24.244 277.365 22.98 277.365 22.98 C 277.365 22.98 277.092 24.202 276.819 24.974 C 276.026 27.389 275.228 29.803 274.439 32.214 C 276.278 32.235 278.113 32.252 279.952 32.273 C 279.234 29.845 278.516 27.414 277.794 24.987 Z M 283.06 42.284 C 282.564 40.684 282.064 39.084 281.565 37.484 C 278.613 37.446 275.665 37.412 272.717 37.391 C 272.171 38.979 271.625 40.566 271.079 42.158 C 269.051 42.141 267.027 42.128 264.999 42.12 C 268.169 33.486 271.377 24.861 274.623 16.244 C 276.488 16.261 278.352 16.282 280.217 16.303 C 283.202 24.987 286.154 33.675 289.069 42.372 C 287.066 42.338 285.063 42.309 283.06 42.284 Z " fill="rgb(252,253,255)"></path><path d=" M 314.051 42.91 C 312.308 42.864 310.565 42.818 308.818 42.776 C 307.689 39.101 306.551 35.427 305.404 31.757 C 305.304 31.421 305.031 30.262 305.031 30.262 C 305.031 30.262 304.779 31.408 304.661 31.702 C 303.334 35.326 302.016 38.954 300.701 42.587 C 298.959 42.549 297.216 42.515 295.473 42.482 C 293.239 33.789 290.976 25.101 288.683 16.421 C 290.774 16.451 292.861 16.489 294.948 16.526 C 296.17 21.616 297.38 26.705 298.581 31.795 C 298.719 32.353 298.959 33.508 298.988 33.915 C 299.106 33.508 299.5 32.404 299.702 31.854 C 301.575 26.987 303.469 22.124 305.367 17.261 C 307.029 22.204 308.684 27.15 310.322 32.097 C 310.49 32.66 310.838 33.781 310.939 34.188 C 310.985 33.785 311.275 32.643 311.439 32.089 C 312.871 27.062 314.319 22.036 315.772 17.009 C 317.863 17.068 319.95 17.127 322.037 17.19 C 319.35 25.76 316.683 34.331 314.051 42.91 Z " fill="rgb(252,253,255)"></path><path d=" M 333.679 26.293 C 333.477 25.545 333.296 24.277 333.296 24.277 C 333.296 24.277 332.994 25.487 332.704 26.255 C 331.848 28.649 330.991 31.042 330.139 33.436 C 331.978 33.499 333.813 33.566 335.648 33.633 C 334.997 31.185 334.338 28.741 333.679 26.293 Z M 338.503 43.715 C 338.046 42.103 337.588 40.49 337.13 38.878 C 334.182 38.769 331.235 38.664 328.287 38.563 C 327.703 40.138 327.115 41.712 326.531 43.287 C 324.507 43.22 322.479 43.157 320.451 43.094 C 323.84 34.544 327.266 26.007 330.726 17.475 C 332.591 17.538 334.455 17.605 336.316 17.676 C 339.087 26.432 341.817 35.191 344.508 43.955 C 342.509 43.871 340.506 43.791 338.503 43.715 Z " fill="rgb(252,253,255)"></path><path d=" M 357.735 23.84 C 356.752 23.794 355.765 23.748 354.778 23.706 C 354.69 25.604 354.606 27.506 354.522 29.404 C 355.501 29.45 356.487 29.496 357.47 29.543 C 360.078 29.664 361.207 28.72 361.295 26.906 C 361.379 25.163 360.351 23.962 357.735 23.84 Z M 361.917 44.744 C 360.006 41.309 358.083 37.878 356.156 34.452 C 355.534 34.422 354.917 34.393 354.295 34.368 C 354.144 37.698 353.989 41.028 353.838 44.362 C 351.872 44.269 349.911 44.185 347.946 44.101 C 348.316 35.459 348.689 26.822 349.059 18.184 C 352.171 18.318 355.282 18.457 358.398 18.604 C 363.609 18.851 367.443 21.829 367.162 27.233 C 366.973 30.899 365.1 33.175 362.068 34.103 C 364.327 37.765 366.57 41.426 368.808 45.092 C 366.511 44.975 364.214 44.857 361.917 44.744 Z " fill="rgb(252,253,255)"></path><path d=" M 381.322 25.074 C 380.327 25.015 379.328 24.96 378.332 24.901 C 378.043 30.033 377.757 35.164 377.467 40.296 C 378.458 40.35 379.449 40.405 380.44 40.464 C 384.669 40.707 386.777 37.276 387.021 33.279 C 387.268 29.21 385.664 25.325 381.322 25.074 Z M 380.134 45.717 C 377.173 45.545 374.209 45.381 371.244 45.221 C 371.706 36.588 372.168 27.954 372.63 19.32 C 375.628 19.48 378.631 19.648 381.629 19.82 C 389.88 20.299 393.269 26.762 392.832 33.636 C 392.396 40.443 388.091 46.179 380.134 45.717 Z " fill="rgb(252,253,255)"></path><path d=" M 246.315 281.847 L 246.739 284.665 L 248.322 282.174 C 251.278 277.551 251.824 273.348 251.698 269.501 C 256.007 277.358 258.249 286.575 257.506 294.012 L 257.153 297.569 L 259.458 294.654 C 262.482 290.85 263.96 286.395 263.8 281.792 C 267.437 288.049 269.969 297.573 270.666 303.196 L 271.048 306.278 L 272.698 303.523 C 280.828 289.93 287.244 287.146 294.677 283.921 C 302.609 280.474 313.62 279.848 321.014 280.755 C 329.518 281.796 335.208 279.306 338.172 280.805 C 343.766 283.648 348.733 283.044 354.172 281.549 C 355.184 281.267 356.96 282.145 358.136 281.633 C 360.747 280.499 376.57 279.063 380.16 273.188 C 384.078 266.767 377.41 265.356 376.297 264.424 C 374.886 263.249 365.047 257.97 355.301 252.83 C 335.649 242.462 333.595 242.975 332.714 243.189 C 331.307 243.542 328.976 244.47 326.033 245.65 C 325.029 246.053 323.958 246.477 322.85 246.909 C 309.517 254.644 294.736 254.22 281.185 253.422 C 266.299 252.545 256.67 250.995 246.6 254.392 C 241.335 256.173 243.006 265.424 243.665 269.564 C 244.677 273.167 245.613 277.186 246.315 281.847 Z " fill="rgb(225,162,113)"></path><path d=" M 308.301 167.115 C 310.053 156.995 311.354 150.789 307.243 141.004 C 306.122 150.012 305.568 154.593 305.169 156.5 C 305.169 156.5 299.664 180.044 293.033 188.8 C 294.049 189.043 295.217 189.384 296.46 189.808 C 302.347 183.282 307.168 173.712 308.301 167.115 Z M 314.155 237.112 C 303.267 230.137 297.388 231.565 288.964 235.42 C 293.579 239.115 299.92 242.848 307.298 244.045 C 310.51 244.57 312.58 240.904 314.155 237.112 Z M 250.218 265.032 C 256.324 273.947 259.448 285.44 258.591 294.074 C 262.585 289.039 263.55 283.11 262.06 277.517 C 267.128 283.026 270.84 295.737 271.747 303.052 C 279.759 289.661 285.928 286.616 294.234 283.009 C 302.54 279.402 313.933 278.864 321.189 279.751 C 328.445 280.645 332.863 276.954 338.716 279.918 C 344.562 282.892 349.282 281.846 353.892 280.578 C 358.507 279.31 363.353 278.806 373.906 274.077 C 378.088 272.205 378.508 266.985 375.682 265.276 C 372.852 263.571 336.911 243.184 332.968 244.166 C 329.024 245.145 316.024 251.519 308.356 252.275 C 300.684 253.039 285.621 249.298 276.45 247.769 C 286.827 248.042 298.16 248.626 304.388 247.387 C 297.463 246.358 294.062 243.301 289.989 240.421 C 284.513 236.562 282.947 235.403 279.885 234.895 C 286.524 233.664 293.81 229.591 298.853 229.234 C 295.544 227.365 285.458 224.766 278.705 226.597 C 293.537 222.36 295.582 224.061 301.175 225.148 C 306.517 226.962 309.141 227.449 313.437 230.54 C 318.783 234.374 320.563 239.266 322.7 238.707 C 324.846 238.145 328.126 237.456 327.101 235.327 C 326.11 233.278 320.299 219.647 314.995 217.523 C 320.601 219.383 325.636 224.695 330.066 231.472 C 331.809 229.247 330.461 223.448 328.038 220.092 C 325.619 216.737 318.913 203.703 310.905 200.868 C 306.639 198.685 294.419 193.335 284.651 193.91 C 291.387 195.388 302.276 201.309 304.921 203.468 C 291.845 198.865 280.696 195.141 268.518 198.189 C 267.796 201.956 266.54 205.87 264.651 209.935 C 266.301 201.687 267.737 182.157 256.227 166.594 C 244.704 151.028 238.296 143.78 235.067 140.404 C 244.444 156.164 225.627 173.477 227.227 188.393 C 229.218 206.936 241.589 227.071 241.589 227.071 L 244.755 230.54 C 244.755 230.54 260.082 219.626 261.711 216.347 C 257.252 227.097 249.676 232.224 244.864 237.246 C 240.052 242.273 237.104 242.818 239.103 251.133 C 241.097 259.443 245.288 267.724 247.392 281.682 C 251.285 275.585 250.827 270.458 250.218 265.032 Z M 168.732 243.49 C 163.072 249.252 155.828 254.236 149.101 258.62 C 159.523 256.487 166.293 254.282 173.713 250.507 C 170.937 255.571 165.7 260.967 159.767 265.746 C 173.717 261.341 181.296 254.559 185.214 251.024 C 183.929 260.027 190.257 283.165 200.566 295.397 C 197.43 287.208 195.918 272.813 201.604 263.369 C 206.903 281.447 214.092 291.361 227.261 303.27 C 222.793 295.666 220.962 282.69 221.752 278.491 C 224.838 286.146 232.203 292.68 237.268 298.189 C 243.453 304.925 248.824 313.004 252.653 323.46 C 253.09 315.188 250.176 305.807 244.805 293.818 C 239.43 281.829 236.272 274.023 236.05 268.98 C 234.441 274.816 235.101 280.771 237.746 289.174 C 227.95 280.939 218.363 262.702 218.35 250.591 C 215.1 258.431 214.185 266.536 215.234 275.812 C 208.805 265.385 205.664 252.611 208.234 245.439 C 202.548 248.639 193.881 259.011 193.818 266.384 C 190.791 253.01 196.565 242.063 204.287 237.238 C 195.989 237.532 189.019 238.909 179.255 242.411 C 188.154 233.778 201.759 228.239 210.888 225.929 C 200.016 225.875 182.014 230.2 169.194 237.784 C 179.268 225.337 203.225 214.197 210.787 212.387 C 202.943 211.937 191.92 213.235 181.603 216.422 C 191.379 209.611 203.372 205.324 215.318 203.442 C 214.168 199.802 213.214 196.384 212.564 193.045 C 206.823 193.201 197.451 194.166 187.608 198.034 C 192.37 200.003 197.048 200.545 202.28 201.389 C 191.538 204.95 184.017 207.764 177.84 212.37 C 171.336 217.212 166.595 222.389 159.989 224.523 C 165.335 224.774 172.617 223.628 178.613 222.314 C 169.194 228.608 168.233 231.065 160.976 236.578 C 150.239 244.725 140.564 249.659 133.484 251.633 C 144.171 252.137 162.417 246.232 168.732 243.49 Z M 139.863 255.29 C 130.15 256.382 122.889 255.496 115.243 254.224 C 131.905 249.197 154.3 238.556 160.93 229.805 C 150.407 230.884 142.907 229.919 135.802 227.676 C 146.607 225.925 158.973 220.739 166.557 213.961 C 172.952 208.238 180.893 203.694 183.551 202.544 C 176.035 201.956 168.409 203.552 163.181 201.045 C 176.24 199.231 196.758 187.082 211.631 185.495 C 211.417 180.347 214.096 176.622 216.158 170.89 C 220.991 157.423 225.816 136.835 229.743 120.81 C 230.805 123.838 233.879 130.746 239.119 136.931 C 246.523 145.67 256.626 155.681 263.051 167.552 C 266.603 161.832 270.979 157.894 275.653 155.219 C 281.007 152.162 292.609 144.553 298.454 138.351 C 303.632 132.845 307.088 127.071 309.137 120.495 C 309.507 125.841 310.418 132.484 312.123 140.862 C 314.764 153.85 317.347 163.378 310.947 178.453 C 307.336 186.977 305.358 190.593 304.069 192.785 C 307.436 194.259 310.628 195.859 312.723 197.144 C 320.525 201.154 333.618 217.01 333.879 229.368 C 334.387 233.622 334.916 234.869 339.334 237.36 C 343.743 239.85 366.906 255.664 374.132 259.011 C 381.259 263.386 381.153 262.173 382.48 267.006 C 383.429 268.887 382.606 272.356 379.205 275.304 C 375.808 278.247 369.916 278.932 361.421 282.992 C 355.983 285.587 344.872 287.162 341.013 285.533 C 332.438 281.905 322.15 283.165 311.367 284.382 C 303.367 285.285 298.866 287.805 296.46 290.123 C 291.925 294.473 286.747 307.919 289.006 320.525 C 284.861 316.086 283.035 310.631 282.573 307.167 C 280.007 321.86 277.126 337.981 280.242 348.198 C 275.161 341.408 271.248 334.109 270.105 327.999 C 270.819 345.313 267.535 355.181 262.341 364.415 C 258.767 353.661 253.015 341.29 244.066 333.975 C 247.778 346.686 248.349 355.798 245.221 368.904 C 238.691 351.179 222.352 330.183 213.282 325.123 C 219.173 336.52 221.189 344.456 220.139 355.189 C 207.936 331.115 177.467 297.895 129.65 285.789 C 140.606 284.34 169.807 290.757 180.868 299.537 C 166.843 285.436 140.61 271.852 108.087 276.055 C 121.76 272.33 126.61 271.138 133.404 266.905 C 124.485 268.392 112.979 269.53 105.908 268.19 C 118.602 264.52 130.91 260.459 139.863 255.29 Z " fill="rgb(34,31,31)"></path><path d=" M 244.587 232.533 C 248.92 230.199 253.351 227.62 256.277 225.181 C 259.683 221.569 265.289 213.662 266.759 202.266 C 267.149 193.124 265.902 179.216 257.13 167.353 C 248.383 155.532 240.291 143.317 235.76 139.441 C 234.299 138.186 233.652 142.926 232.888 142.129 L 231.405 140.575 L 230.994 142.658 C 229.932 148.104 228.474 152.761 227.064 157.263 C 225.107 163.519 223.083 169.99 222.02 178.741 C 220.299 192.964 244.587 232.533 244.587 232.533 Z " fill="rgb(225,162,113)"></path><path d=" M 309.889 243.825 C 311.753 243.015 313.261 241.335 314.243 238.967 L 314.949 237.236 L 313.508 235.931 C 304.321 230.409 300.126 229.388 291.912 233.151 L 288.464 235.212 L 290.383 236.749 C 293.894 239.559 299.517 243.145 306.382 244.258 C 307.596 244.455 308.772 244.308 309.889 243.825 Z " fill="rgb(244,245,245)"></path><path d=" M 253.742 323.478 C 254.153 315.722 251.781 306.732 245.814 293.408 C 240.351 281.222 237.348 273.705 237.138 268.909 L 234.997 268.758 C 233.636 273.701 233.791 278.79 235.601 285.702 C 226.842 276.581 219.451 260.885 219.439 250.563 L 217.335 250.252 C 214.647 256.736 213.484 263.417 213.77 270.963 C 209.079 261.615 207.189 251.537 209.268 245.73 L 210.183 243.177 L 207.689 244.579 C 203.129 247.145 196.864 253.948 194.113 260.498 C 193.647 249.992 198.799 241.866 204.876 238.07 L 208.038 236.097 L 204.275 236.231 C 197.2 236.483 191.136 237.52 183.842 239.805 C 188.91 235.866 194.546 233.006 198.766 231.175 C 203.96 228.916 208.365 227.606 211.149 226.9 L 210.927 224.919 C 201.479 224.872 187.802 228.022 176.892 232.754 C 176.002 233.145 175.124 233.539 174.272 233.947 C 182.124 226.737 193.899 220.207 202.679 216.398 C 206.06 214.929 209.104 213.824 211.032 213.362 L 210.885 211.38 C 204.242 210.998 195.881 211.867 187.902 213.694 C 189.994 212.531 192.181 211.456 194.453 210.469 C 200.987 207.63 208.059 205.602 215.47 204.435 L 216.713 204.237 L 216.365 203.133 C 215.08 199.068 214.211 195.797 213.635 192.837 L 213.476 192.009 L 212.564 192.035 C 206.463 192.202 197.111 193.214 187.205 197.107 L 184.879 198.018 L 187.142 198.955 C 190.762 200.454 194.336 201.147 198.052 201.751 C 194.172 203.078 190.817 204.313 187.747 205.648 C 183.493 207.492 180.134 209.381 177.174 211.59 C 175.33 212.963 173.634 214.353 171.996 215.697 C 168.519 218.557 165.235 221.253 161.515 222.869 C 160.902 223.134 160.276 223.373 159.659 223.571 L 159.902 225.532 C 164.311 225.737 169.724 225.019 174.074 224.242 C 170.954 226.544 169.01 228.316 166.982 230.163 C 165.139 231.843 163.232 233.581 160.301 235.807 C 153.137 241.241 145.973 245.583 139.582 248.354 C 137.315 249.341 135.165 250.118 133.195 250.668 L 133.397 252.637 C 141.997 253.045 155.661 249.341 164.215 246.318 C 159.402 250.517 153.868 254.296 148.493 257.803 L 149.308 259.604 C 157.782 257.87 163.841 256.068 169.565 253.587 C 170.005 253.393 170.446 253.196 170.887 252.994 C 168.17 256.791 164.085 260.948 159.062 264.992 L 160.091 266.696 C 162.548 265.924 164.95 265.029 167.226 264.038 C 175.246 260.557 180.583 256.434 183.968 253.511 C 183.926 263.791 189.876 284.375 199.702 296.032 L 201.596 295.037 C 199.026 288.335 197.09 275.666 201.327 266.192 C 206.925 283.85 214.593 293.244 226.489 304.002 L 228.219 302.768 C 224.931 297.166 223.113 288.453 222.739 282.859 C 225.544 287.533 229.584 291.72 233.241 295.503 C 234.375 296.675 235.442 297.783 236.433 298.858 C 243.202 306.228 248.17 314.391 251.621 323.806 L 253.742 323.478 Z " fill="rgb(184,31,36)"></path><path d=" M 297.289 190.44 C 303.083 184.015 308.169 174.26 309.374 167.248 C 311.272 156.322 310.39 147.646 306.439 138.24 L 305.565 136.165 L 304.331 138.42 C 299.934 146.432 294.467 156.401 293.073 173.576 L 295.097 174.114 C 297.427 170.414 299.531 166.068 301.085 162.121 C 299.892 171.581 296.877 181.991 292.149 188.235 L 291.25 189.424 L 292.732 189.777 C 293.728 190.012 294.845 190.343 296.058 190.755 L 296.785 190.999 L 297.289 190.44 Z " fill="rgb(225,162,113)"></path><path d=" M 358.136 281.634 C 360.747 280.5 370.099 276.695 377.2 274.041 C 379.585 267.041 379.921 266.617 376.293 264.425 C 374.701 263.468 365.043 257.971 355.301 252.831 C 335.649 242.463 333.591 242.971 332.714 243.19 C 331.307 243.538 328.98 244.47 326.033 245.65 C 320.611 247.817 313.183 250.79 308.27 251.273 C 303.659 251.731 296.239 250.501 289.004 249.119 C 295.118 249.224 300.778 249.132 304.587 248.376 L 304.596 246.394 C 298.817 245.533 295.605 243.198 292.204 240.721 C 291.696 240.355 291.188 239.982 290.667 239.612 L 290.167 239.263 C 287.135 237.122 285.296 235.824 283.629 235.01 C 285.712 234.392 287.887 232.65 289.928 231.894 C 293.312 230.634 296.109 229.588 298.591 229.416 L 301.119 229.37 L 299.439 228.367 C 297.335 227.178 292.813 225.742 287.984 225.188 C 295.639 223.399 298.146 224.18 299.359 224.68 C 300.98 225.398 301.921 226.17 303.315 227.355 C 305.461 229.177 308.379 230.668 310.995 232.549 L 313.208 234.061 C 318.382 237.794 319.188 238.642 322.501 239.158 L 324.08 238.936 C 324.962 238.709 325.512 238.634 326.381 238.26 C 327.255 237.878 327.595 237.89 327.964 237.353 C 328.321 236.84 328.632 236.001 328.099 234.896 C 328.006 234.707 327.876 234.418 327.704 234.048 C 326.125 230.605 324.126 226.515 321.913 223.122 C 324.324 225.377 326.734 228.35 329.132 232.011 L 329.967 233.296 L 330.941 232.049 C 332.331 230.277 334.914 226.972 331.89 222.79 C 329.799 219.888 316.051 202.344 311.453 199.984 C 309.899 199.19 295.966 192.237 284.612 192.904 L 284.372 194.89 C 287.618 195.604 291.855 197.381 295.626 199.245 C 286.619 196.469 277.737 194.844 268.264 197.217 L 267.571 197.393 L 267.449 198.044 C 267.256 199.043 267.025 200.055 266.757 201.067 C 267.16 191.93 265.95 177.93 257.128 166.008 C 248.381 154.187 239.957 142.745 235.426 138.869 C 233.965 137.617 233.65 141.577 232.89 140.783 L 231.403 139.23 L 230.992 141.313 C 229.925 146.759 228.472 151.416 227.061 155.917 C 225.105 162.174 223.081 168.645 222.018 177.397 C 220.292 191.619 223.769 202.365 229.879 209.957 L 231.962 209.34 C 227.574 201.617 226.003 192.052 229.472 180 C 230.79 175.419 232.05 172.017 233.163 169.019 C 234.561 165.248 235.792 161.935 236.623 157.585 C 245.937 165.311 256.137 176.544 257.203 195.151 C 258.304 214.387 250.728 223.663 243.191 230.953 L 244.459 232.545 C 252.378 228.543 254.465 227.249 256.389 223.739 C 253.647 227.552 250.552 230.432 247.696 233.082 C 246.39 234.296 245.16 235.438 244.06 236.588 C 243.216 237.47 242.414 238.226 241.704 238.894 C 238.315 242.089 236.27 244.017 238.042 251.378 C 238.76 254.381 239.772 257.4 240.839 260.595 C 242.779 266.386 244.971 272.949 246.315 281.848 L 246.739 284.661 L 248.326 282.175 C 251.278 277.548 251.824 273.344 251.694 269.502 C 256.007 277.359 258.245 286.576 257.506 294.013 L 257.149 297.569 L 259.463 294.655 C 262.482 290.851 263.96 286.4 263.8 281.789 C 267.437 288.046 269.969 297.569 270.666 303.196 L 271.048 306.274 L 272.698 303.52 C 280.828 289.927 287.244 287.143 294.673 283.918 C 302.609 280.475 313.62 279.845 321.014 280.752 C 329.518 281.797 335.208 279.307 338.172 280.806 C 343.762 283.649 348.733 283.04 354.172 281.545 C 355.179 281.268 356.96 282.146 358.136 281.634 Z " fill="rgb(184,31,36)"></path><path d=" M 323.692 219.622 C 322.121 215.604 315.335 206.105 308.298 202.553 C 309.578 204.379 311.216 206.517 312.312 208.797 C 306.379 205.862 288.087 200.881 278.429 201.012 C 281.62 202.187 284.984 202.943 290.703 206.886 C 284.916 205.723 276.829 205.194 271.907 206.231 C 277.345 210.741 284.648 213.92 297.959 217.779 C 302.184 219.005 309.94 222.755 314.235 226.669 C 318.535 230.587 322.147 232.594 322.13 232.128 C 322.037 229.562 315.814 218.564 309.301 215.058 C 315.331 215.234 318.628 216.519 323.692 219.622 Z " fill="rgb(235,33,39)"></path><path d=" M 282.6 229.679 C 277.405 228.906 271.186 229.124 266.508 230.052 C 269.561 227.63 276.553 224.316 280.937 223.103 C 267.205 224.934 257.362 229.204 247.742 237.376 C 253.76 235.176 260.995 234.239 264.531 234.079 C 259.454 235.734 253.289 239.509 246.785 245.086 C 253.844 242.852 261.465 241.47 266.546 242.016 C 262.343 243.293 256.985 245.619 250.337 249.331 C 258.58 247.677 271.472 249.104 274.121 249.604 C 270.33 247.672 266.865 246.421 264.43 246.379 C 269.994 244.788 274.81 243.524 282.852 243.339 C 275.692 239.421 270.653 238.031 265.538 238.048 C 270.834 234.651 275.721 231.976 282.6 229.679 Z " fill="rgb(235,33,39)"></path><path d=" M 220.265 215.627 C 209.939 216.4 207.525 217.017 196.292 223.349 C 207.84 220.536 215.021 222.073 220.127 224.407 C 215.495 227.213 213.941 227.561 204.674 232.214 C 208.865 231.559 210.166 232.142 214.571 232.373 C 214.571 232.373 208.495 237.828 205.778 241.687 C 209.129 239.865 210.872 239.487 214.361 238.744 C 214.361 238.744 210.192 244.161 211.766 251.35 C 214.139 241.641 221.538 237.79 221.538 237.79 C 221.538 237.79 219.795 250.825 229.281 266.341 C 227.555 235.279 234.858 236.396 234.858 236.396 C 234.858 236.396 226.312 227.238 220.265 215.627 Z " fill="rgb(235,33,39)"></path><path d=" M 220.265 215.627 L 219.749 208.736 C 217.12 208.933 214.899 209.127 212.766 209.429 C 209.574 209.874 206.551 210.651 203.46 211.94 C 200.353 213.221 197.182 214.917 192.899 217.332 L 149.337 241.906 L 197.93 230.064 C 201.898 229.094 205.127 228.741 207.781 228.741 C 212.052 228.758 214.836 229.602 217.255 230.69 L 220.127 224.407 L 216.553 218.495 C 214.412 219.788 213.215 220.393 211.153 221.388 C 209.096 222.371 206.278 223.677 201.575 226.037 L 162.127 245.836 L 205.736 239.038 C 206.878 238.861 207.554 238.823 208.163 238.819 C 208.755 238.819 209.364 238.865 210.338 238.962 C 211.3 239.054 212.577 239.185 214.21 239.273 L 214.571 232.373 L 209.952 227.234 C 209.898 227.284 208.31 228.707 206.324 230.681 C 205.329 231.668 204.237 232.793 203.17 233.973 C 202.1 235.162 201.062 236.388 200.13 237.711 L 183.128 261.86 L 209.079 247.759 C 210.502 246.987 211.292 246.663 212.136 246.386 C 212.976 246.113 214.051 245.87 215.802 245.5 L 214.361 238.744 L 208.886 234.528 C 208.642 234.847 207.613 236.22 206.58 238.521 C 205.556 240.814 204.506 244.077 204.502 248.074 C 204.502 249.577 204.653 251.177 205.018 252.828 L 211.397 281.958 L 218.477 252.987 C 219.316 249.565 220.983 247.289 222.462 245.781 C 223.192 245.038 223.873 244.509 224.313 244.198 L 224.771 243.896 L 224.822 243.867 L 223.045 240.684 L 224.729 243.917 L 224.822 243.867 L 223.045 240.684 L 224.729 243.917 L 221.538 237.79 L 214.693 236.875 C 214.655 237.139 214.504 238.387 214.504 240.411 C 214.5 245.895 215.634 257.27 223.39 269.944 L 237.705 293.358 L 236.18 265.959 C 236.004 262.784 235.928 259.983 235.928 257.522 C 235.924 252.714 236.227 249.2 236.63 246.743 C 236.928 244.904 237.289 243.665 237.566 242.934 C 237.776 242.384 237.94 242.12 237.973 242.069 L 237.982 242.061 L 235.802 240.427 L 236.995 242.8 C 237.625 242.494 237.969 242.09 237.982 242.061 L 235.802 240.427 L 236.995 242.8 L 234.765 238.366 L 234.765 243.3 C 235.538 243.308 236.369 243.123 236.995 242.8 L 234.765 238.366 L 234.765 243.3 L 234.765 237.001 L 233.799 243.224 C 234.119 243.275 234.442 243.3 234.765 243.3 L 234.765 237.001 L 233.799 243.224 L 253.536 246.285 L 239.913 231.685 L 237.898 233.562 L 239.913 231.689 L 239.913 231.685 L 237.898 233.562 L 239.913 231.689 C 239.876 231.672 231.805 222.875 226.392 212.435 L 224.288 208.396 L 219.749 208.736 L 220.265 215.627 L 214.139 218.818 C 220.736 231.429 229.588 240.847 229.81 241.112 L 234.858 236.396 L 235.92 229.568 C 235.601 229.522 235.215 229.484 234.765 229.484 C 233.417 229.463 231.427 229.896 229.667 231.114 C 228.345 232.012 227.194 233.255 226.274 234.721 C 224.885 236.938 223.914 239.646 223.213 243.27 C 222.52 246.898 222.109 251.476 222.109 257.522 C 222.109 260.273 222.197 263.326 222.386 266.727 L 229.281 266.341 L 235.177 262.738 C 229.054 252.727 228.328 244.064 228.324 240.411 C 228.324 239.743 228.349 239.252 228.37 238.958 L 228.391 238.672 L 228.395 238.647 L 224.481 238.181 L 228.387 238.706 L 228.395 238.647 L 224.481 238.181 L 228.387 238.706 L 230.15 225.52 L 218.351 231.659 C 217.893 231.903 215.453 233.213 212.623 236.077 C 209.805 238.92 206.584 243.426 205.056 249.708 L 211.766 251.35 L 218.514 249.871 C 218.376 249.237 218.321 248.645 218.321 248.074 C 218.313 246.571 218.741 245.168 219.19 244.173 C 219.413 243.678 219.631 243.291 219.77 243.073 L 219.9 242.871 L 219.728 242.754 L 219.896 242.876 L 219.9 242.871 L 219.728 242.754 L 219.896 242.876 L 216.318 240.251 L 219.837 242.955 L 219.896 242.876 L 216.318 240.251 L 219.837 242.955 L 231.293 228.061 L 212.917 231.987 C 211.182 232.357 209.641 232.676 207.899 233.234 C 206.164 233.789 204.405 234.565 202.482 235.615 L 205.778 241.687 L 211.43 245.664 C 211.854 245.055 212.593 244.152 213.429 243.233 C 214.685 241.838 216.154 240.373 217.288 239.285 C 217.859 238.739 218.342 238.286 218.682 237.975 L 219.069 237.618 L 219.165 237.53 L 219.186 237.513 L 231.62 226.343 L 214.932 225.47 C 213.647 225.403 212.69 225.306 211.661 225.205 C 210.641 225.109 209.503 225.004 208.163 225.004 C 206.794 225 205.299 225.121 203.611 225.386 L 204.674 232.214 L 207.773 238.387 C 212.337 236.098 214.928 234.901 217.124 233.847 C 219.312 232.802 221.21 231.832 223.705 230.32 L 234.874 223.559 L 223.003 218.125 C 219.123 216.332 214.034 214.905 207.781 214.921 C 203.888 214.921 199.546 215.446 194.659 216.639 L 196.292 223.349 L 199.689 229.367 C 202.444 227.813 204.602 226.646 206.358 225.789 C 209.016 224.496 210.649 223.92 212.585 223.488 C 214.521 223.059 216.965 222.799 220.782 222.518 L 220.265 215.627 L 214.139 218.818 L 220.265 215.627 Z " fill="rgb(184,31,36)"></path><path d=" M 368.402 267.729 C 362.54 263.484 349.367 254.027 334.964 252.478 C 322.803 256.836 313.581 260.838 298.88 260.338 C 304.07 259.646 311.108 256.958 314.879 254.77 C 297.696 258.923 284.292 253.305 267.848 257.323 C 272.463 257.521 277.632 257.613 281.458 258.886 C 275.28 260.653 268.927 260.414 262.087 267.057 C 271.069 264.441 269.011 263.979 276.549 264.197 C 269.817 267.116 268.776 267.435 263.749 272.008 C 268.591 270.181 272.165 269.232 278.967 267.931 C 277.279 268.783 271.623 271.214 270.002 273.868 C 297.31 259.788 305.947 275.993 318.868 274.519 C 326.213 273.679 333.104 272.373 339.717 274.708 C 348.809 277.92 351.714 275.136 360.201 273.322 C 364.085 272.491 371.715 270.131 368.402 267.729 Z " fill="rgb(252,197,135)"></path><path d=" M 173.852 240.041 C 164.731 243.909 155.631 246.559 147.107 248.049 C 161.149 240.907 174.578 225.504 183.275 220.335 C 177.971 221.149 174.322 221.804 168.989 221.989 C 181.612 210.551 187.381 207.955 206.362 201.111 C 202.037 199.733 197.585 199.154 194.167 197.923 C 200.496 196.08 206.32 195.362 210.767 195.131 C 207.861 195.996 204.527 196.886 202.834 197.806 C 206.966 198.986 210.179 200.649 212.77 201.955 C 204.044 203.559 189.414 208.371 176.833 218.575 C 182.493 217.231 192.84 215.065 198.66 214.876 C 186.315 221.153 171.601 230.514 165.776 240.386 C 172.361 237.157 181.78 233.067 193.122 230.463 C 186.579 233.31 180.579 237.959 174.439 245.274 C 182.632 242.645 191.593 240.34 198.169 239.714 C 191.442 247.84 189.006 257.355 193.907 271.96 C 195.969 260.189 200.941 254.373 205.19 250.346 C 206.635 265.228 210.918 272.85 217.036 281.534 C 216.226 272.682 216.536 265.3 217.695 260.437 C 221.525 271.225 227.753 283.818 240.354 293.632 C 240.354 293.632 239.481 289.92 239.204 286.455 C 242.941 293.716 247.287 305.385 248.551 309.723 C 240.804 296.878 228.781 289.454 220.45 273.639 C 219.417 278.456 219.677 288.202 221.5 294.736 C 210.863 283.503 204.224 268.882 202.326 258.077 C 198.866 263.675 194.474 270.603 195.393 283.222 C 187.285 264.33 186.432 254.751 187.528 246.471 C 182.153 251.925 175.002 257.204 169.455 259.635 C 172.613 256.259 175.506 252.341 178.37 247.1 C 171.559 250.057 162.136 253.24 159.41 254.046 C 168.107 247.697 168.594 246.227 173.852 240.041 Z " fill="rgb(235,33,39)"></path><path d=" M 312.132 234.784 C 313.476 238.719 309.378 243.082 304.985 242.2 C 302.226 241.641 301.252 239.181 301.458 236.451 C 304.964 240.428 309.714 236.25 304.41 231.177 C 306.3 231.177 312.132 234.784 312.132 234.784 Z " fill="rgb(34,31,31)"></path><path d=" M 289.745 270.771 C 308.217 277.275 312.832 280.156 329.049 279.786 L 336.625 280.378 C 336.625 280.378 326.899 284.452 303.669 281.378 C 296.102 279.937 287.486 271.946 289.745 270.771 Z " fill="rgb(34,31,31)"></path><path d=" M 383.714 268.562 C 384.243 271.644 381.808 274.835 379.204 275.301 C 376.601 275.772 374.845 273.336 374.291 270.258 C 373.737 267.18 376.307 265.866 378.003 263.838 C 380.258 261.125 382.954 264.106 383.714 268.562 Z " fill="rgb(34,31,31)"></path><path d=" M 284.91 274.402 C 285.057 275.213 286.812 274.953 288.681 273.231 C 289.785 272.21 295.312 278.404 296.945 274.314 C 297.252 273.546 289.71 270.14 287.207 270.59 C 284.704 271.043 284.763 273.592 284.91 274.402 Z " fill="rgb(34,31,31)"></path><path d=" M 375.349 265.755 C 375.093 264.319 375.609 263.022 376.508 262.858 C 377.407 262.698 378.347 263.731 378.603 265.172 C 378.864 266.608 378.343 267.905 377.449 268.065 C 376.546 268.229 375.609 267.192 375.349 265.755 Z " fill="rgb(34,31,31)"></path></g></g></switch></svg> 